<svg xmlns="http://www.w3.org/2000/svg" xmlns:xlink="http://www.w3.org/1999/xlink" version="1.1" x="0px" y="0px" viewBox="0 0 100 125" enable-background="new 0 0 100 100" xml:space="preserve"><path fill="none" stroke="#000000" stroke-miterlimit="10" d="M75.08,33.832c0-12.679-11.053-22.957-24.687-22.957  c-13.635,0-24.688,10.278-24.688,22.957c0,7.423,3.792,14.019,9.669,18.215v11.497c0,0.528,0.448,0.956,1,0.956h27.25  c0.553,0,1-0.428,1-0.956v-10.96C70.947,48.427,75.08,41.58,75.08,33.832z"/><path fill="none" stroke="#000000" stroke-width="0.5" stroke-miterlimit="10" d="M44.473,58.312c0,0.553-0.448,1-1,1h-1.202  c-0.552,0-1-0.447-1-1v-3c0-0.553,0.448-1,1-1h1.202c0.552,0,1,0.447,1,1V58.312z"/><path fill="none" stroke="#000000" stroke-width="0.5" stroke-miterlimit="10" d="M49.486,58.312c0,0.553-0.446,1-0.999,1h-1.202  c-0.552,0-1-0.447-1-1v-3c0-0.553,0.448-1,1-1h1.202c0.553,0,0.999,0.447,0.999,1V58.312z"/><path fill="none" stroke="#000000" stroke-width="0.5" stroke-miterlimit="10" d="M54.501,58.312c0,0.553-0.447,1-1,1h-1.202  c-0.552,0-1-0.447-1-1v-3c0-0.553,0.448-1,1-1h1.202c0.553,0,1,0.447,1,1V58.312z"/><path fill="none" stroke="#000000" stroke-width="0.5" stroke-miterlimit="10" d="M59.516,58.312c0,0.553-0.447,1-1,1h-1.202  c-0.552,0-1-0.447-1-1v-3c0-0.553,0.448-1,1-1h1.202c0.553,0,1,0.447,1,1V58.312z"/><ellipse fill="none" stroke="#000000" stroke-miterlimit="10" cx="41.271" cy="33.75" rx="4.093" ry="3.938"/><ellipse fill="none" stroke="#000000" stroke-miterlimit="10" cx="61.292" cy="32.688" rx="6.092" ry="6.25"/><g><path fill="none" stroke="#000000" stroke-width="0.5" stroke-miterlimit="10" d="M52.98,44.083   c0.271,0.479,0.042,0.867-0.508,0.861l-3.708-0.033c-0.55-0.005-0.771-0.397-0.492-0.871l1.883-3.196   c0.279-0.474,0.729-0.47,1,0.009L52.98,44.083z"/></g><path fill="none" stroke="#000000" stroke-miterlimit="10" d="M76.088,75.284c-2.039,0-3.691,1.479-3.846,3.351  c-0.078,0.028-0.156,0.061-0.232,0.094l-16.127-4.987l17.209-5.521c0.355,1.66,1.92,2.911,3.799,2.911  c2.139,0,3.875-1.623,3.875-3.625c0-1.667-1.211-3.057-2.848-3.479c0.117-0.346,0.197-0.707,0.197-1.09  c0-2.002-1.734-3.625-3.875-3.625s-3.875,1.623-3.875,3.625c0,0.835,0.314,1.594,0.82,2.207L50.03,71.932l-20.864-6.452  c0.689-0.654,1.116-1.551,1.116-2.542c0-2.002-1.735-3.625-3.875-3.625s-3.875,1.623-3.875,3.625c0,0.463,0.102,0.901,0.271,1.309  c-1.489,0.442-2.574,1.727-2.574,3.261c0,1.898,1.651,3.438,3.688,3.438c1.621,0,2.982-0.981,3.477-2.337l16.802,5.195  l-16.263,5.218c-0.046-0.011-0.087-0.029-0.134-0.038c-0.311-1.711-1.893-3.018-3.81-3.018c-2.141,0-3.875,1.623-3.875,3.625  c0,1.754,1.331,3.216,3.1,3.552c0.311,1.711,1.892,3.018,3.81,3.018c2.14,0,3.875-1.623,3.875-3.625  c0-0.258-0.031-0.508-0.085-0.751l19.236-6.17l19.749,6.106c-0.01,0.097-0.031,0.188-0.031,0.287c0,2.002,1.734,3.625,3.875,3.625  c2.039,0,3.691-1.479,3.846-3.351c1.447-0.525,2.477-1.832,2.477-3.372C79.963,76.907,78.229,75.284,76.088,75.284z"/><text x="0" y="115" fill="#000000" font-size="5px" font-weight="bold" font-family="'Helvetica Neue', Helvetica, Arial-Unicode, Arial, Sans-serif">Created by Sarah Cavins</text><text x="0" y="120" fill="#000000" font-size="5px" font-weight="bold" font-family="'Helvetica Neue', Helvetica, Arial-Unicode, Arial, Sans-serif">from the Noun Project</text></svg>